HIERARCHY
ROOT Hips
{
	OFFSET 0.000000 0.000000 0.000000
	CHANNELS 6 Xposition Yposition Zposition Zrotation Yrotation Xrotation 
	JOINT LHipJoint
	{
		OFFSET 0.000000 0.000000 0.000000
		CHANNELS 3 Zrotation Yrotation Xrotation
		JOINT LeftUpLeg
		{
			OFFSET 1.363060 -1.794630 0.839290
			CHANNELS 3 Zrotation Yrotation Xrotation
			JOINT LeftLeg
			{
				OFFSET 2.448110 -6.726130 0.000000
				CHANNELS 3 Zrotation Yrotation Xrotation
				JOINT LeftFoot
				{
					OFFSET 2.562200 -7.039590 0.000000
					CHANNELS 3 Zrotation Yrotation Xrotation
					JOINT LeftToeBase
					{
						OFFSET 0.157640 -0.433110 2.322550
						CHANNELS 3 Zrotation Yrotation Xrotation
						End Site
						{
							OFFSET 0.000000 0.000000 0.000000
						}
					}
				}
			}
		}
	}
	JOINT RHipJoint
	{
		OFFSET 0.000000 0.000000 0.000000
		CHANNELS 3 Zrotation Yrotation Xrotation
		JOINT RightUpLeg
		{
			OFFSET -1.305520 -1.794630 0.839290
			CHANNELS 3 Zrotation Yrotation Xrotation
			JOINT RightLeg
			{
				OFFSET -2.542530 -6.985550 0.000000
				CHANNELS 3 Zrotation Yrotation Xrotation
				JOINT RightFoot
				{
					OFFSET -2.568260 -7.056230 0.000000
					CHANNELS 3 Zrotation Yrotation Xrotation
					JOINT RightToeBase
					{
						OFFSET -0.164730 -0.452590 2.363150
						CHANNELS 3 Zrotation Yrotation Xrotation
						End Site
						{
							OFFSET 0.000000 0.000000 0.000000
						}
					}
				}
			}
		}
	}
	JOINT LowerBack
	{
		OFFSET 0.000000 0.000000 0.000000
		CHANNELS 3 Zrotation Yrotation Xrotation
		JOINT Spine
		{
			OFFSET 0.028270 2.035590 -0.193380
			CHANNELS 3 Zrotation Yrotation Xrotation
			JOINT Spine1
			{
				OFFSET 0.056720 2.048850 -0.042750
				CHANNELS 3 Zrotation Yrotation Xrotation
				JOINT Neck
				{
					OFFSET 0.000000 0.000000 0.000000
					CHANNELS 3 Zrotation Yrotation Xrotation
					JOINT Neck1
					{
						OFFSET -0.054170 1.746240 0.172020
						CHANNELS 3 Zrotation Yrotation Xrotation
						JOINT Head
						{
							OFFSET 0.104070 1.761360 -0.123970
							CHANNELS 3 Zrotation Yrotation Xrotation
							End Site
							{
								OFFSET 0.000000 0.000000 0.000000
							}
						}
					}
				}
				JOINT LeftShoulder
				{
					OFFSET 0.000000 0.000000 0.000000
					CHANNELS 3 Zrotation Yrotation Xrotation
					JOINT LeftArm
					{
						OFFSET 3.362410 1.200890 -0.311210
						CHANNELS 3 Zrotation Yrotation Xrotation
						JOINT LeftForeArm
						{
							OFFSET 4.983000 -0.000000 -0.000000
							CHANNELS 3 Zrotation Yrotation Xrotation
							JOINT LeftHand
							{
								OFFSET 3.483560 -0.000000 -0.000000
								CHANNELS 3 Zrotation Yrotation Xrotation
								JOINT LeftFingerBase
								{
									OFFSET 0.000000 0.000000 0.000000
									CHANNELS 3 Zrotation Yrotation Xrotation
									JOINT LeftHandIndex1
									{
										OFFSET 0.715260 -0.000000 -0.000000
										CHANNELS 3 Zrotation Yrotation Xrotation
										End Site
										{
											OFFSET 0.000000 0.000000 0.000000
										}
									}
								}
								JOINT LThumb
								{
									OFFSET 0.000000 0.000000 0.000000
									CHANNELS 3 Zrotation Yrotation Xrotation
									End Site
									{
										OFFSET 0.000000 0.000000 0.000000
									}
								}
							}
						}
					}
				}
				JOINT RightShoulder
				{
					OFFSET 0.000000 0.000000 0.000000
					CHANNELS 3 Zrotation Yrotation Xrotation
					JOINT RightArm
					{
						OFFSET -3.136600 1.374050 -0.404650
						CHANNELS 3 Zrotation Yrotation Xrotation
						JOINT RightForeArm
						{
							OFFSET -5.241900 -0.000000 -0.000000
							CHANNELS 3 Zrotation Yrotation Xrotation
							JOINT RightHand
							{
								OFFSET -3.444170 -0.000000 -0.000000
								CHANNELS 3 Zrotation Yrotation Xrotation
								JOINT RightFingerBase
								{
									OFFSET 0.000000 0.000000 0.000000
									CHANNELS 3 Zrotation Yrotation Xrotation
									JOINT RightHandIndex1
									{
										OFFSET -0.622530 -0.000000 -0.000000
										CHANNELS 3 Zrotation Yrotation Xrotation
										End Site
										{
											OFFSET 0.000000 0.000000 0.000000
										}
									}
								}
								JOINT RThumb
								{
									OFFSET 0.000000 0.000000 0.000000
									CHANNELS 3 Zrotation Yrotation Xrotation
									End Site
									{
										OFFSET 0.000000 0.000000 0.000000
									}
								}
							}
						}
					}
				}
			}
		}
	}
}
MOTION
Frames: 4
Frame Time: 0.008333
2.783850 17.110021 1.126678 -40.750062 -60.772708 26.595638 -12.975612 -1.551146 -2.741875 9.187827 3.244270 2.670320 0.503080 1.538028 23.339002 2.110733 12.144973 -11.365535 -0.801400 -0.000000 -37.084100 6.370246 5.698788 -1.627182 8.852409 -28.855860 -68.305259 2.821351 -0.471018 5.449169 -1.375052 -8.279101 16.190443 -3.710700 0.000000 -64.444201 -1.173520 -6.435697 7.656275 -0.739192 -6.361344 -0.692308 -5.253090 -6.178185 1.412678 8.407296 -18.991010 -5.188296 -1.064108 -0.105844 0.479794 0.000000 0.000000 0.000000 6.837546 9.295260 -1.231226 -63.374100 15.797098 -1.825400 -2.171973 -50.210333 0.001932 -0.450889 0.074575 0.000665 -0.069592 0.113475 0.000000 0.000000 0.000000 0.000000 0.000000 0.000000 0.000000 6.272732 -18.683551 -0.592561 75.139833 -20.100038 -15.120550 4.517186 15.061178 0.014995 6.636991 6.839190 0.391876 0.107101 -0.014778 -0.000000 0.000000 0.000000 0.000000 0.000000 0.000000 0.000000 
2.772297 17.108984 1.136853 -41.075601 -60.761756 26.447336 -12.994784 -1.444118 -2.643531 9.449055 3.541102 3.132753 0.506291 1.524326 23.039526 2.060896 11.843540 -11.317807 -0.779200 0.000000 -37.215800 6.411678 5.489662 -1.969071 9.514378 -29.212276 -67.111566 2.918236 -0.680461 7.186540 -1.253205 -7.393358 16.257495 -3.277500 0.000000 -63.237200 -1.152162 -6.350043 7.758379 -0.745807 -6.269287 -0.676930 -5.255737 -6.088574 1.387210 8.451420 -18.878251 -5.221416 -1.046157 -0.103963 0.470609 0.000000 0.000000 0.000000 6.656542 9.576891 -1.201064 -64.049623 16.037090 -2.327635 -2.240930 -49.113328 0.001651 -0.330172 0.100154 0.000577 -0.074174 0.109255 0.000000 0.000000 0.000000 0.000000 0.000000 0.000000 0.000000 6.257413 -18.531920 -0.598746 74.782343 -19.786166 -16.062441 4.536018 14.406677 0.015973 6.498436 6.991427 0.392084 0.109426 -0.018625 -0.000000 0.000000 0.000000 0.000000 0.000000 0.000000 0.000000 
2.761018 17.110147 1.145599 -41.284804 -60.751401 26.258489 -13.002173 -1.336373 -2.535494 9.616214 3.729057 3.559791 0.510818 1.507328 22.707080 2.026909 11.639422 -11.255439 -0.758200 0.000000 -37.253400 6.479162 5.289944 -2.262832 10.014887 -29.554844 -65.724301 2.977993 -0.824868 8.497043 -1.206084 -7.051897 15.957055 -3.056300 -0.000000 -63.218600 -1.181614 -6.272376 7.813852 -0.761817 -6.184633 -0.668192 -5.259948 -6.006278 1.368418 8.509328 -18.776421 -5.252687 -1.031707 -0.102389 0.462138 0.000000 0.000000 0.000000 6.497636 9.865820 -1.173030 -64.701221 16.288944 -2.845733 -2.308856 -48.039525 0.001398 -0.213711 0.121398 0.000586 -0.078512 0.105199 0.000000 0.000000 0.000000 0.000000 0.000000 0.000000 0.000000 6.278505 -18.397110 -0.611621 74.415832 -19.456744 -16.948317 4.543293 13.817184 0.016905 6.304853 7.130185 0.387893 0.111722 -0.022560 -0.000000 0.000000 0.000000 0.000000 0.000000 0.000000 0.000000 
2.750133 17.113149 1.152888 -41.375938 -60.727122 26.013331 -12.999250 -1.225797 -2.414627 9.696856 3.802283 3.951338 0.515823 1.488812 22.355330 2.006604 11.519833 -11.182049 -0.738500 0.000000 -37.208800 6.563536 5.099066 -2.524526 10.420484 -29.923283 -64.240055 3.012337 -0.925507 9.549243 -1.222148 -7.199062 15.335718 -3.018399 0.000000 -64.278300 -1.251601 -6.206674 7.835569 -0.784837 -6.111716 -0.664343 -5.264477 -5.935503 1.355697 8.571313 -18.685427 -5.285048 -1.018333 -0.100895 0.453620 0.000000 0.000000 0.000000 6.352352 10.157210 -1.145662 -65.317817 16.552879 -3.357197 -2.374906 -47.000196 0.001171 -0.104709 0.139314 0.000593 -0.082511 0.101315 0.000000 0.000000 0.000000 0.000000 0.000000 0.000000 0.000000 6.312705 -18.280580 -0.627485 74.060328 -19.091171 -17.884334 4.545358 13.233383 0.017898 6.098546 7.294092 0.383602 0.113905 -0.026947 -0.000000 0.000000 0.000000 0.000000 0.000000 0.000000 0.000000 
